<svg width="174" height="536" viewBox="0 0 174 536" fill="none" xmlns="http://www.w3.org/2000/svg">
<path fill-rule="evenodd" clip-rule="evenodd" d="M-106 6.86964C-68.4358 10.3707 -37.3707 -8.54307 -2.79427 6.86964C30.4714 21.6981 75.4381 14.6576 99.3444 42.5717C123.985 71.3432 67.8234 125.641 82.1975 160.946C95.5277 193.688 162.941 215.725 173.171 249.612C183.785 284.771 89.0433 309.131 82.1975 345.254C75.1508 382.438 160.747 423.454 139.88 454.75C118.65 486.591 96.7935 527.767 59.7577 534.922C17.803 543.028 -18.945 503.059 -60.6024 493.484C-87.3795 487.329 -115.255 494.392 -142.094 488.524C-168.616 482.725 -135.322 477.754 -161.5 470.5C-133.149 493.093 -196.194 460.886 -161.5 470.5C-188.206 449.218 -171.004 473.078 -173.29 438.538C-175.546 404.441 -185.531 356.518 -173.29 324.717C-162.859 297.618 -166.88 206.093 -158.091 178.393C-147.763 145.844 -172.796 94.3167 -158.091 63.578C-142.311 30.5924 -172.319 35.8346 -142.094 16C-110.523 -4.71721 -143.359 3.38771 -106 6.86964Z" fill="#94B4C1"/>
</svg>
